<svg width="25" height="24" viewBox="0 0 25 24" fill="none" xmlns="http://www.w3.org/2000/svg">
<g filter="url(#filter0_d_2_3)">
<path d="M4.01407 5.02814L4.02273 13.0281C4.02393 14.1327 4.92032 15.0272 6.02489 15.026L18.0249 15.013C19.1295 15.0118 20.0239 14.1154 20.0227 13.0108L20.0141 5.01082C20.0129 3.90626 19.1165 3.01179 18.0119 3.01299C18.0107 1.90842 17.1143 1.01396 16.0097 1.01516L8.00974 1.02381C6.90517 1.02501 6.01071 1.92141 6.01191 3.02598C4.90734 3.02717 4.01288 3.92357 4.01407 5.02814ZM7.01191 3.02489C7.01131 2.47261 7.45854 2.02441 8.01082 2.02381L16.0108 2.01515C16.5631 2.01456 17.0113 2.46179 17.0119 3.01407L7.01191 3.02489ZM6.02381 14.026C5.47153 14.0266 5.02333 13.5793 5.02273 13.0271L5.01407 5.02706C5.01347 4.47477 5.46071 4.02657 6.01299 4.02598L18.013 4.01299C18.5653 4.01239 19.0135 4.45962 19.0141 5.01191L19.0227 13.0119C19.0233 13.5642 18.5761 14.0124 18.0238 14.013L6.02381 14.026Z" fill="black"/>
</g>
<defs>
<filter id="filter0_d_2_3" x="-1" y="0" width="26.0346" height="24.039" filterUnits="userSpaceOnUse" color-interpolation-filters="sRGB">
<feFlood flood-opacity="0" result="BackgroundImageFix"/>
<feColorMatrix in="SourceAlpha" type="matrix" values="0 0 0 0 0 0 0 0 0 0 0 0 0 0 0 0 0 0 127 0" result="hardAlpha"/>
<feOffset dy="4"/>
<feGaussianBlur stdDeviation="2"/>
<feComposite in2="hardAlpha" operator="out"/>
<feColorMatrix type="matrix" values="0 0 0 0 0 0 0 0 0 0 0 0 0 0 0 0 0 0 0.25 0"/>
<feBlend mode="normal" in2="BackgroundImageFix" result="effect1_dropShadow_2_3"/>
<feBlend mode="normal" in="SourceGraphic" in2="effect1_dropShadow_2_3" result="shape"/>
</filter>
</defs>
</svg>
